:SAMPLES-PER-SECOND 30
:FULLY-SPECIFIED
:DEGREES
165
root  -21.0948 40.367 -11.6903 0.14624 -83.215 -1.22842
RightUpLeg  -11.5858 -15.3543 -7.06258
RightLeg  8.95619 -7.99168 3.66311
RightFoot  -3.20229 -0.926651 12.6694
RightToes  5.82063e-011 0 -3.6325e-017
Spine  12.0986 -1.53428 2.48951
Spine1  7.52681 -2.95767 5.68424
HEad  -24.7678 0.489822 1.40059
LeftShoulder1  7.79158 -12.1842 -43.1874
LeftArm  -15.2268 9.6853 -28.6721
LeftForeArm  50.0266 -50.5166 -9.81097
LeftHand  -0.244104 0.0205437 5.32207
RightShoulder  4.39351 7.24249 34.9209
RightArm  -23.8503 -16.4565 30.0424
RightForeArm  5.73177 12.2905 3.27349
RightHand  -1.5562 5.39786 -16.9195
LeftUpLeg  5.9992 8.65293 1.59663
LeftLeg  10.7049 10.7809 -1.48549
LeftFoot  -14.4726 0.0620805 -0.887911
LeftToes  -1.33699e-010 -8.10125e-011 -3.35536e-011
166
root  -20.379 40.3755 -11.5321 -0.659576 -83.278 -0.412262
RightUpLeg  -11.8119 -13.5889 -7.63971
RightLeg  7.10528 -9.97888 4.16009
RightFoot  -1.6677 -1.03497 12.0465
RightToes  5.82063e-011 0 -3.6325e-017
Spine  12.9521 -1.4652 0.530731
Spine1  6.77842 -3.31422 6.83946
HEad  -24.1644 1.1292 1.54861
LeftShoulder1  7.175 -11.5879 -41.2156
LeftArm  -16.0927 10.9174 -26.3926
LeftForeArm  46.7668 -46.9522 -8.68475
LeftHand  -0.244104 0.0205437 5.32207
RightShoulder  3.87099 6.47372 32.8537
RightArm  -27.7935 -18.6818 30.1407
RightForeArm  3.3308 13.726 2.83331
RightHand  -1.69944 5.75653 -17.8753
LeftUpLeg  4.94349 8.25955 1.05274
LeftLeg  10.6522 11.4135 -1.84189
LeftFoot  -14.137 0.0763967 -0.335936
LeftToes  -1.33699e-010 -8.10125e-011 -3.35536e-011
167
root  -19.7404 40.4179 -11.3633 -0.307983 -83.9954 -0.75058
RightUpLeg  -11.6947 -11.8199 -8.06015
RightLeg  4.77111 -11.8979 4.9002
RightFoot  -1.23221 -1.05807 11.8269
RightToes  5.82063e-011 0 -3.6325e-017
Spine  13.3092 -1.17787 -0.771854
Spine1  6.35597 -3.2464 7.38861
HEad  -23.1158 1.6264 1.74611
LeftShoulder1  6.62146 -11.0081 -39.4082
LeftArm  -16.6571 11.6584 -23.7457
LeftForeArm  40.6513 -40.3898 -6.95664
LeftHand  -0.244104 0.0205437 5.32207
RightShoulder  3.43838 5.80683 30.9751
RightArm  -28.6255 -19.5204 28.5202
RightForeArm  1.12652 12.8334 2.55212
RightHand  -1.6238 5.18355 -17.9615
LeftUpLeg  3.93791 8.19368 0.656188
LeftLeg  10.6367 12.3527 -2.1174
LeftFoot  -13.4827 0.0891796 0.45273
LeftToes  -1.33699e-010 -8.10125e-011 -3.35536e-011
168
root  -19.1942 40.4764 -11.1787 3.11209 -85.156 -4.16571
RightUpLeg  -11.7042 -11.0704 -7.95918
RightLeg  3.3478 -13.1898 5.40973
RightFoot  -1.6617 -0.990034 11.5182
RightToes  5.82063e-011 0 -3.6325e-017
Spine  13.1478 -0.822257 -1.05953
Spine1  6.23469 -2.80523 7.07924
HEad  -21.8368 1.888 1.96993
LeftShoulder1  6.15333 -10.5391 -37.673
LeftArm  -16.5331 11.9676 -21.1
LeftForeArm  32.707 -31.7008 -5.10263
LeftHand  -0.244104 0.0205437 5.32207
RightShoulder  3.05767 5.17161 29.2602
RightArm  -27.4488 -19.5092 25.6782
RightForeArm  0.357608 10.6391 2.23601
RightHand  -1.23339 3.70834 -15.8723
LeftUpLeg  3.16967 8.03734 0.459614
LeftLeg  10.4515 13.6933 -2.2882
LeftFoot  -12.8014 0.0926899 1.2281
LeftToes  -1.33699e-010 -8.10125e-011 -3.35536e-011
169
root  -18.7311 40.5407 -10.9935 12.4073 -86.5372 -13.5507
RightUpLeg  -12.3152 -11.596 -7.24699
RightLeg  4.61587 -12.7744 4.93026
RightFoot  -2.23485 -0.87476 10.7623
RightToes  5.82063e-011 0 -3.6325e-017
Spine  12.8374 -0.560481 -0.56915
Spine1  6.09733 -2.2066 6.03201
HEad  -20.3338 2.15096 2.05527
LeftShoulder1  5.71433 -10.0917 -35.939
LeftArm  -16.0577 12.3849 -18.6249
LeftForeArm  24.8744 -22.5338 -3.66772
LeftHand  -0.244104 0.0205437 5.32207
RightShoulder  2.72388 4.60806 27.5491
RightArm  -26.3512 -19.1784 22.6131
RightForeArm  1.42495 8.71419 1.89664
RightHand  -0.916341 2.53799 -13.612
LeftUpLeg  2.84529 7.69145 0.548019
LeftLeg  9.95163 15.4418 -2.58616
LeftFoot  -12.1719 0.0850014 1.62572
LeftToes  -1.33699e-010 -8.10125e-011 -3.35536e-011
